<mxfile host="65bd71144e" modified="2021-02-10T07:12:54.420Z" agent="5.0 (Windows NT 10.0; Win64; x64) AppleWebKit/537.36 (KHTML, like Gecko) Code/1.53.1 Chrome/87.0.4280.141 Electron/11.2.1 Safari/537.36" etag="g5jiyJPVjq6sEFzrSb00" version="14.2.4" type="embed" pages="2">
    <diagram id="66qr1bRX8Vw6yU5s1GWa" name="第 1 页">
        <mxGraphModel dx="1517" dy="783" grid="1" gridSize="10" guides="1" tooltips="1" connect="1" arrows="1" fold="1" page="0" pageScale="1" pageWidth="1200" pageHeight="1600" background="#C9C9C9" math="0" shadow="1">
            <root>
                <mxCell id="0"/>
                <mxCell id="1" parent="0"/>
                <mxCell id="2" value="&lt;font style=&quot;font-size: 28px&quot; color=&quot;#5429ff&quot;&gt;&lt;b&gt;1&lt;/b&gt;&lt;/font&gt;" style="ellipse;whiteSpace=wrap;html=1;aspect=fixed;strokeColor=#0F8B8D;flipV=0;flipH=1;fontColor=#143642;fillColor=#CCFF99;" parent="1" vertex="1">
                    <mxGeometry x="260" y="240" width="80" height="80" as="geometry"/>
                </mxCell>
                <mxCell id="53" value="&lt;font color=&quot;#5429ff&quot;&gt;&lt;span style=&quot;font-size: 28px&quot;&gt;&lt;b&gt;3&lt;/b&gt;&lt;/span&gt;&lt;/font&gt;" style="ellipse;whiteSpace=wrap;html=1;aspect=fixed;strokeColor=#0F8B8D;flipV=0;flipH=1;fontColor=#143642;fillColor=#CCFF99;" parent="1" vertex="1">
                    <mxGeometry x="400" y="240" width="80" height="80" as="geometry"/>
                </mxCell>
                <mxCell id="54" value="&lt;font color=&quot;#5429ff&quot;&gt;&lt;span style=&quot;font-size: 28px&quot;&gt;&lt;b&gt;6&lt;/b&gt;&lt;/span&gt;&lt;/font&gt;" style="ellipse;whiteSpace=wrap;html=1;aspect=fixed;strokeColor=#0F8B8D;flipV=0;flipH=1;fontColor=#143642;fillColor=#CCFF99;" parent="1" vertex="1">
                    <mxGeometry x="820" y="240" width="80" height="80" as="geometry"/>
                </mxCell>
                <mxCell id="55" value="&lt;b style=&quot;color: rgb(84 , 41 , 255) ; font-size: 28px&quot;&gt;4&lt;/b&gt;" style="ellipse;whiteSpace=wrap;html=1;aspect=fixed;strokeColor=#0F8B8D;flipV=0;flipH=1;fontColor=#143642;fillColor=#CCFF99;" parent="1" vertex="1">
                    <mxGeometry x="680" y="240" width="80" height="80" as="geometry"/>
                </mxCell>
                <mxCell id="56" value="&lt;b style=&quot;color: rgb(84 , 41 , 255) ; font-size: 28px&quot;&gt;2&lt;/b&gt;" style="ellipse;whiteSpace=wrap;html=1;aspect=fixed;strokeColor=#0F8B8D;flipV=0;flipH=1;fontColor=#143642;fillColor=#CCFF99;" parent="1" vertex="1">
                    <mxGeometry x="540" y="240" width="80" height="80" as="geometry"/>
                </mxCell>
                <mxCell id="57" value="&lt;font style=&quot;font-size: 27px&quot; color=&quot;#ff3888&quot;&gt;5&lt;/font&gt;" style="ellipse;whiteSpace=wrap;html=1;aspect=fixed;fillColor=#FAE5C7;strokeColor=#0F8B8D;flipH=1;flipV=0;fontColor=#143642;" parent="1" vertex="1">
                    <mxGeometry x="260" y="390" width="80" height="80" as="geometry"/>
                </mxCell>
                <mxCell id="58" value="&lt;span style=&quot;color: rgb(255 , 56 , 136) ; font-size: 27px&quot;&gt;6&lt;/span&gt;" style="ellipse;whiteSpace=wrap;html=1;aspect=fixed;fillColor=#FAE5C7;strokeColor=#0F8B8D;flipH=1;flipV=0;fontColor=#143642;" parent="1" vertex="1">
                    <mxGeometry x="400" y="390" width="80" height="80" as="geometry"/>
                </mxCell>
                <mxCell id="59" value="&lt;span style=&quot;color: rgb(255 , 56 , 136) ; font-size: 27px&quot;&gt;9&lt;/span&gt;" style="ellipse;whiteSpace=wrap;html=1;aspect=fixed;fillColor=#FAE5C7;strokeColor=#0F8B8D;flipH=1;flipV=0;fontColor=#143642;" parent="1" vertex="1">
                    <mxGeometry x="820" y="390" width="80" height="80" as="geometry"/>
                </mxCell>
                <mxCell id="60" value="&lt;span style=&quot;color: rgb(255 , 56 , 136) ; font-size: 27px&quot;&gt;8&lt;/span&gt;" style="ellipse;whiteSpace=wrap;html=1;aspect=fixed;fillColor=#FAE5C7;strokeColor=#0F8B8D;flipH=1;flipV=0;fontColor=#143642;" parent="1" vertex="1">
                    <mxGeometry x="680" y="390" width="80" height="80" as="geometry"/>
                </mxCell>
                <mxCell id="61" value="&lt;span style=&quot;color: rgb(255 , 56 , 136) ; font-size: 27px&quot;&gt;7&lt;/span&gt;" style="ellipse;whiteSpace=wrap;html=1;aspect=fixed;fillColor=#FAE5C7;strokeColor=#0F8B8D;flipH=1;flipV=0;fontColor=#143642;" parent="1" vertex="1">
                    <mxGeometry x="540" y="390" width="80" height="80" as="geometry"/>
                </mxCell>
                <mxCell id="64" value="&lt;font style=&quot;font-size: 28px&quot;&gt;old&lt;/font&gt;" style="text;html=1;strokeColor=none;fillColor=none;align=center;verticalAlign=middle;whiteSpace=wrap;flipV=0;flipH=1;fontColor=#143642;" parent="1" vertex="1">
                    <mxGeometry x="130" y="270" width="40" height="20" as="geometry"/>
                </mxCell>
                <mxCell id="65" value="&lt;font style=&quot;font-size: 28px&quot;&gt;new&lt;/font&gt;" style="text;html=1;strokeColor=none;fillColor=none;align=center;verticalAlign=middle;whiteSpace=wrap;flipV=0;flipH=1;fontColor=#143642;" parent="1" vertex="1">
                    <mxGeometry x="140" y="410" width="40" height="20" as="geometry"/>
                </mxCell>
                <mxCell id="X_SLl99_BxDed86gnGDP-66" value="" style="html=1;shadow=0;dashed=0;align=center;verticalAlign=middle;shape=mxgraph.arrows2.arrow;dy=0.6;dx=40;direction=south;notch=0;" vertex="1" parent="1">
                    <mxGeometry x="840" y="100" width="70" height="100" as="geometry"/>
                </mxCell>
                <mxCell id="X_SLl99_BxDed86gnGDP-67" value="" style="html=1;shadow=0;dashed=0;align=center;verticalAlign=middle;shape=mxgraph.arrows2.arrow;dy=0.6;dx=40;direction=south;notch=0;" vertex="1" parent="1">
                    <mxGeometry x="265" y="120" width="70" height="100" as="geometry"/>
                </mxCell>
                <mxCell id="X_SLl99_BxDed86gnGDP-68" value="" style="html=1;shadow=0;dashed=0;align=center;verticalAlign=middle;shape=mxgraph.arrows2.arrow;dy=0.6;dx=40;direction=north;notch=0;" vertex="1" parent="1">
                    <mxGeometry x="265" y="510" width="70" height="100" as="geometry"/>
                </mxCell>
                <mxCell id="X_SLl99_BxDed86gnGDP-70" style="edgeStyle=orthogonalEdgeStyle;rounded=0;orthogonalLoop=1;jettySize=auto;html=1;exitX=0;exitY=0;exitDx=60;exitDy=49;exitPerimeter=0;" edge="1" parent="1" source="X_SLl99_BxDed86gnGDP-69">
                    <mxGeometry relative="1" as="geometry">
                        <mxPoint x="870" y="530" as="targetPoint"/>
                    </mxGeometry>
                </mxCell>
                <mxCell id="X_SLl99_BxDed86gnGDP-69" value="" style="html=1;shadow=0;dashed=0;align=center;verticalAlign=middle;shape=mxgraph.arrows2.arrow;dy=0.6;dx=40;direction=north;notch=0;" vertex="1" parent="1">
                    <mxGeometry x="840" y="520" width="70" height="100" as="geometry"/>
                </mxCell>
            </root>
        </mxGraphModel>
    </diagram>
    <diagram id="vbd4kHWWCmNGVaxaWcIY" name="第 2 页">
        <mxGraphModel dx="1300" dy="671" grid="1" gridSize="10" guides="1" tooltips="1" connect="1" arrows="1" fold="1" page="1" pageScale="1" pageWidth="1200" pageHeight="1600" background="#ffffff" math="0" shadow="0">
            <root>
                <mxCell id="nko29UB1hgzORwbvfG1u-0"/>
                <mxCell id="nko29UB1hgzORwbvfG1u-1" parent="nko29UB1hgzORwbvfG1u-0"/>
                <mxCell id="nko29UB1hgzORwbvfG1u-2" value="&lt;font style=&quot;font-size: 28px&quot; color=&quot;#5429ff&quot;&gt;&lt;b&gt;1&lt;/b&gt;&lt;/font&gt;" style="ellipse;whiteSpace=wrap;html=1;aspect=fixed;strokeColor=#0F8B8D;flipV=0;flipH=1;fontColor=#143642;fillColor=#CCFF99;" parent="nko29UB1hgzORwbvfG1u-1" vertex="1">
                    <mxGeometry x="260" y="240" width="80" height="80" as="geometry"/>
                </mxCell>
                <mxCell id="nko29UB1hgzORwbvfG1u-3" value="&lt;font color=&quot;#5429ff&quot;&gt;&lt;span style=&quot;font-size: 28px&quot;&gt;&lt;b&gt;3&lt;/b&gt;&lt;/span&gt;&lt;/font&gt;" style="ellipse;whiteSpace=wrap;html=1;aspect=fixed;strokeColor=#0F8B8D;flipV=0;flipH=1;fontColor=#143642;fillColor=#CCFF99;" parent="nko29UB1hgzORwbvfG1u-1" vertex="1">
                    <mxGeometry x="400" y="240" width="80" height="80" as="geometry"/>
                </mxCell>
                <mxCell id="nko29UB1hgzORwbvfG1u-4" value="&lt;font color=&quot;#5429ff&quot;&gt;&lt;span style=&quot;font-size: 28px&quot;&gt;&lt;b&gt;6&lt;/b&gt;&lt;/span&gt;&lt;/font&gt;" style="ellipse;whiteSpace=wrap;html=1;aspect=fixed;strokeColor=#0F8B8D;flipV=0;flipH=1;fontColor=#143642;fillColor=#CCFF99;" parent="nko29UB1hgzORwbvfG1u-1" vertex="1">
                    <mxGeometry x="820" y="240" width="80" height="80" as="geometry"/>
                </mxCell>
                <mxCell id="nko29UB1hgzORwbvfG1u-5" value="&lt;b style=&quot;color: rgb(84 , 41 , 255) ; font-size: 28px&quot;&gt;4&lt;/b&gt;" style="ellipse;whiteSpace=wrap;html=1;aspect=fixed;strokeColor=#0F8B8D;flipV=0;flipH=1;fontColor=#143642;fillColor=#CCFF99;" parent="nko29UB1hgzORwbvfG1u-1" vertex="1">
                    <mxGeometry x="680" y="240" width="80" height="80" as="geometry"/>
                </mxCell>
                <mxCell id="nko29UB1hgzORwbvfG1u-6" value="&lt;b style=&quot;color: rgb(84 , 41 , 255) ; font-size: 28px&quot;&gt;2&lt;/b&gt;" style="ellipse;whiteSpace=wrap;html=1;aspect=fixed;strokeColor=#0F8B8D;flipV=0;flipH=1;fontColor=#143642;fillColor=#CCFF99;" parent="nko29UB1hgzORwbvfG1u-1" vertex="1">
                    <mxGeometry x="540" y="240" width="80" height="80" as="geometry"/>
                </mxCell>
                <mxCell id="nko29UB1hgzORwbvfG1u-7" value="&lt;font style=&quot;font-size: 27px&quot; color=&quot;#ff3888&quot;&gt;5&lt;/font&gt;" style="ellipse;whiteSpace=wrap;html=1;aspect=fixed;fillColor=#FAE5C7;strokeColor=#0F8B8D;flipH=1;flipV=0;fontColor=#143642;" parent="nko29UB1hgzORwbvfG1u-1" vertex="1">
                    <mxGeometry x="260" y="390" width="80" height="80" as="geometry"/>
                </mxCell>
                <mxCell id="nko29UB1hgzORwbvfG1u-8" value="&lt;span style=&quot;color: rgb(255 , 56 , 136) ; font-size: 27px&quot;&gt;6&lt;/span&gt;" style="ellipse;whiteSpace=wrap;html=1;aspect=fixed;fillColor=#FAE5C7;strokeColor=#0F8B8D;flipH=1;flipV=0;fontColor=#143642;" parent="nko29UB1hgzORwbvfG1u-1" vertex="1">
                    <mxGeometry x="400" y="390" width="80" height="80" as="geometry"/>
                </mxCell>
                <mxCell id="nko29UB1hgzORwbvfG1u-9" value="&lt;span style=&quot;color: rgb(255 , 56 , 136) ; font-size: 27px&quot;&gt;9&lt;/span&gt;" style="ellipse;whiteSpace=wrap;html=1;aspect=fixed;fillColor=#FAE5C7;strokeColor=#0F8B8D;flipH=1;flipV=0;fontColor=#143642;" parent="nko29UB1hgzORwbvfG1u-1" vertex="1">
                    <mxGeometry x="820" y="390" width="80" height="80" as="geometry"/>
                </mxCell>
                <mxCell id="nko29UB1hgzORwbvfG1u-10" value="&lt;span style=&quot;color: rgb(255 , 56 , 136) ; font-size: 27px&quot;&gt;8&lt;/span&gt;" style="ellipse;whiteSpace=wrap;html=1;aspect=fixed;fillColor=#FAE5C7;strokeColor=#0F8B8D;flipH=1;flipV=0;fontColor=#143642;" parent="nko29UB1hgzORwbvfG1u-1" vertex="1">
                    <mxGeometry x="680" y="390" width="80" height="80" as="geometry"/>
                </mxCell>
                <mxCell id="nko29UB1hgzORwbvfG1u-11" value="&lt;span style=&quot;color: rgb(255 , 56 , 136) ; font-size: 27px&quot;&gt;7&lt;/span&gt;" style="ellipse;whiteSpace=wrap;html=1;aspect=fixed;fillColor=#FAE5C7;strokeColor=#0F8B8D;flipH=1;flipV=0;fontColor=#143642;" parent="nko29UB1hgzORwbvfG1u-1" vertex="1">
                    <mxGeometry x="540" y="390" width="80" height="80" as="geometry"/>
                </mxCell>
                <mxCell id="nko29UB1hgzORwbvfG1u-12" value="&lt;font style=&quot;font-size: 28px&quot;&gt;old&lt;/font&gt;" style="text;html=1;strokeColor=none;fillColor=none;align=center;verticalAlign=middle;whiteSpace=wrap;flipV=0;flipH=1;fontColor=#143642;" parent="nko29UB1hgzORwbvfG1u-1" vertex="1">
                    <mxGeometry x="130" y="270" width="40" height="20" as="geometry"/>
                </mxCell>
                <mxCell id="nko29UB1hgzORwbvfG1u-13" value="&lt;font style=&quot;font-size: 28px&quot;&gt;new&lt;/font&gt;" style="text;html=1;strokeColor=none;fillColor=none;align=center;verticalAlign=middle;whiteSpace=wrap;flipV=0;flipH=1;fontColor=#143642;" parent="nko29UB1hgzORwbvfG1u-1" vertex="1">
                    <mxGeometry x="140" y="410" width="40" height="20" as="geometry"/>
                </mxCell>
            </root>
        </mxGraphModel>
    </diagram>
</mxfile>